<svg id="Layer_1" enable-background="new 0 0 50 50" height="512" viewBox="0 0 50 50" width="512" xmlns="http://www.w3.org/2000/svg"><g><path d="m1 10.054v36.946c0 1.104.895 2 2 2h44c1.104 0 2-.896 2-2v-36.946z" fill="#d7dadc"/><path d="m4 13.053h42v32.946h-42z" fill="#fff"/><path d="m47 1h-44c-1.105 0-2 .895-2 2v7.054h48v-7.054c0-1.105-.896-2-2-2z" fill="#555"/><path d="m43.105 15.269h-36.21c-.512 0-.927.415-.927.927s.415.927.927.927h36.21c.512 0 .927-.415.927-.927s-.415-.927-.927-.927z" fill="#d7dadc"/><path d="m43.565 20.18v10.22c0 .43-.34.78-.77.8h-22.99c-.43-.02-.77-.37-.77-.8v-10.22c0-.44.35-.79.78-.8h.02 22.96c.431.02.77.36.77.8z" fill="#4fb7e4"/><path d="m15.995 34.064v9.25c0 .389-.308.706-.697.724h-8.137c-.389-.018-.697-.335-.697-.724v-9.25c0-.398.317-.715.706-.724h.018 8.109c.39.018.698.326.698.724z" fill="#5ba658"/><path d="m43.565 33.856v9.25c0 .389-.308.706-.697.724h-11.136c-.389-.018-.697-.335-.697-.724v-9.25c0-.398.317-.715.706-.724h.018 11.109c.39.018.697.326.697.724z" fill="#ffd45a"/><path d="m16.995 20.665v9.25c0 .389-.308.706-.697.724h-9.137c-.389-.018-.697-.335-.697-.724v-9.25c0-.398.317-.715.706-.724h.018 9.109c.39.018.698.326.698.724z" fill="#e46047"/><g fill="#d7dadc"><path d="m28.975 33.542h-10.95c-.38 0-.688.308-.688.688s.308.688.688.688h10.95c.38 0 .688-.308.688-.688s-.308-.688-.688-.688z"/><path d="m28.975 38.001h-10.95c-.38 0-.688.308-.688.688s.308.688.688.688h10.95c.38 0 .688-.308.688-.688s-.308-.688-.688-.688z"/><path d="m28.975 42.46h-10.95c-.38 0-.688.308-.688.688s.308.688.688.688h10.95c.38 0 .688-.308.688-.688s-.308-.688-.688-.688z"/></g><g><g><circle cx="17.936" cy="5.527" fill="#4fb7e4" r="1.736"/><circle cx="12.836" cy="5.527" fill="#ffd45a" r="1.736"/><circle cx="7.736" cy="5.527" fill="#e46047" r="1.736"/></g></g><g fill="#fff"><g><path d="m25.803 24.58c-.052.043-.078.099-.078.169s.032.126.095.167.209.09.438.146.406.141.532.253c.126.113.189.277.189.493s-.081.391-.243.525c-.162.135-.375.202-.639.202-.381 0-.725-.141-1.03-.424l.32-.393c.26.227.5.341.72.341.099 0 .176-.021.233-.064.056-.042.084-.1.084-.172s-.03-.13-.09-.173c-.06-.042-.178-.086-.355-.129-.28-.067-.485-.153-.615-.26s-.195-.275-.195-.503c0-.229.082-.405.246-.529s.369-.186.615-.186c.161 0 .322.027.482.083.161.055.301.133.42.234l-.272.393c-.209-.158-.425-.238-.648-.238-.087.002-.158.023-.209.065z"/><path d="m27.438 26.508v-2.408h.537v1.93h1.027v.479h-1.564z"/><path d="m29.395 24.1h.537v2.409h-.537z"/><path d="m32.365 24.415c.23.21.345.503.345.877 0 .375-.112.671-.336.889s-.566.327-1.025.327h-.824v-2.408h.851c.43 0 .76.105.989.315zm-.394 1.432c.132-.124.198-.305.198-.541s-.066-.419-.198-.546c-.132-.128-.335-.191-.608-.191h-.3v1.464h.341c.246 0 .435-.062.567-.186z"/><path d="m34.912 24.1v.479h-1.199v.496h1.079v.458h-1.079v.5h1.237v.476h-1.775v-2.409z"/><path d="m37.383 24.899c0 .386-.153.635-.458.748l.61.861h-.662l-.534-.768h-.372v.768h-.538v-2.408h.913c.375 0 .642.063.801.19.16.125.24.329.24.609zm-.648.286c.067-.06.1-.154.1-.284s-.035-.219-.104-.267-.189-.072-.362-.072h-.403v.713h.393c.184 0 .309-.03.376-.09z"/></g><g><path d="m8.024 24.512h.351v1.574h-.351z"/><path d="m10.171 25.096-.425.859h-.21l-.423-.859v.99h-.351v-1.574h.475l.405.865.407-.865h.473v1.574h-.351z"/><path d="m12.031 26.086-.146-.34h-.66l-.146.34h-.374l.68-1.574h.34l.68 1.574zm-.475-1.105-.198.457h.394z"/><path d="m13.61 25.284h.353v.559c-.156.174-.372.261-.648.261-.231 0-.425-.076-.582-.229s-.235-.346-.235-.579.08-.429.24-.585.353-.233.579-.233.422.074.589.223l-.182.264c-.071-.062-.136-.104-.195-.128-.06-.024-.124-.034-.193-.034-.133 0-.246.045-.337.136-.092.091-.137.211-.137.359 0 .149.044.268.131.357.088.09.193.134.314.134.122 0 .223-.022.304-.069v-.436z"/><path d="m15.411 24.512v.314h-.784v.324h.705v.3h-.705v.326h.808v.311h-1.159v-1.574h1.135z"/></g><g><path d="m7.524 37.911h.351v1.574h-.351z"/><path d="m9.671 38.495-.425.859h-.21l-.423-.859v.99h-.351v-1.574h.475l.405.865.407-.865h.473v1.574h-.351z"/><path d="m11.531 39.485-.146-.34h-.66l-.146.34h-.374l.68-1.574h.34l.68 1.574zm-.475-1.105-.198.457h.394z"/><path d="m13.11 38.683h.353v.559c-.156.174-.372.261-.648.261-.231 0-.425-.076-.582-.229s-.235-.346-.235-.579.08-.429.24-.585.353-.233.579-.233.422.074.589.223l-.182.264c-.071-.062-.136-.104-.195-.128-.06-.023-.124-.034-.193-.034-.133 0-.246.045-.337.136-.092.091-.137.211-.137.359s.044.268.131.356c.088.09.193.134.314.134.122 0 .223-.022.304-.069v-.435z"/><path d="m14.911 37.911v.313h-.784v.324h.705v.3h-.705v.326h.808v.311h-1.159v-1.574z"/></g></g><g fill="#555"><path d="m33.408 39.214h-.642v-1.465h.57c.099 0 .185.012.257.036s.126.056.163.096c.066.075.098.161.098.256 0 .115-.037.2-.111.256-.025.02-.043.032-.052.037-.01.005-.027.013-.052.024.091.02.163.061.217.123s.081.139.081.232c0 .102-.035.192-.105.271-.082.088-.223.134-.424.134zm-.315-.873h.155c.091 0 .158-.01.202-.029.044-.02.066-.062.066-.127s-.02-.108-.061-.129-.109-.031-.206-.031h-.157v.316zm0 .596h.224c.094 0 .164-.012.211-.035s.07-.068.07-.136-.025-.113-.074-.134c-.05-.022-.129-.033-.238-.033h-.193z"/><path d="m35.238 39.214-.136-.316h-.614l-.136.316h-.348l.633-1.465h.317l.633 1.465zm-.442-1.03-.184.426h.367z"/><path d="m36.781 37.748h.327v1.465h-.327l-.698-.918v.918h-.327v-1.465h.306l.719.943z"/><path d="m38.494 37.748h.327v1.465h-.327l-.698-.918v.918h-.327v-1.465h.306l.719.943z"/><path d="m40.239 37.748v.291h-.73v.302h.656v.279h-.656v.304h.753v.289h-1.08v-1.465z"/><path d="m41.742 38.234c0 .235-.093.387-.279.455l.371.524h-.403l-.325-.467h-.227v.467h-.327v-1.465h.556c.228 0 .39.038.487.115.099.077.147.201.147.371zm-.394.174c.041-.036.061-.094.061-.173s-.021-.133-.063-.163c-.042-.029-.115-.044-.22-.044h-.245v.434h.239c.111.001.188-.017.228-.054z"/></g></g></svg>